<svg aria-hidden="true" style="position: absolute; width: 0; height: 0; overflow: hidden;" version="1.1" xmlns="http://www.w3.org/2000/svg" xmlns:xlink="http://www.w3.org/1999/xlink">
<defs>
<symbol id="icon-star-empty" viewBox="0 0 32 32">
<path d="M21.897 19.502l6.103-6.322-8.417-1.3-3.583-7.715-3.583 7.715-8.417 1.3 6.103 6.322-1.398 8.664 7.295-4.075 7.295 4.075-1.398-8.664zM21.703 31.382l-5.703-3.122-5.703 3.122c-3.176 1.739-5.961-0.373-5.355-4.050l1.089-6.612-4.614-4.683c-2.57-2.608-1.501-6.017 2.045-6.554l6.376-0.965 2.852-6.016c0.798-1.683 2.062-2.514 3.325-2.502 1.258 0.011 2.515 0.859 3.308 2.532l2.837 5.986 6.377 0.965c3.551 0.537 4.611 3.95 2.045 6.554l-4.614 4.683 1.089 6.612c0.607 3.682-2.183 5.787-5.355 4.050z"></path>
</symbol>
<symbol id="icon-star-full" viewBox="0 0 32 32">
<path d="M21.703 31.382c3.172 1.736 5.961-0.368 5.355-4.050l-1.089-6.612 4.614-4.683c2.566-2.604 1.506-6.017-2.045-6.554l-6.377-0.965-2.837-5.986c-1.589-3.353-5.041-3.389-6.633-0.030l-2.852 6.016-6.376 0.965c-3.546 0.537-4.615 3.946-2.045 6.554l4.614 4.683-1.089 6.612c-0.606 3.677 2.178 5.789 5.355 4.050l5.703-3.122 5.703 3.122z"></path>
</symbol>
</defs>
</svg>
